<?xml version="1.0" encoding="iso-8859-1"?>
<!-- Generator: Adobe Illustrator 19.0.0, SVG Export Plug-In . SVG Version: 6.00 Build 0)  -->
<svg version="1.1" id="Layer_1" xmlns="http://www.w3.org/2000/svg" xmlns:xlink="http://www.w3.org/1999/xlink" x="0px" y="0px"
	 viewBox="0 0 337.114 337.114" style="enable-background:new 0 0 337.114 337.114;" xml:space="preserve">
<g>
	<path style="fill:#333E48;" d="M227.812,337.113c24.608,0,44.557-19.949,44.557-44.557V103.812C272.369,46.479,225.892,0,168.558,0
		S64.746,46.479,64.746,103.812v188.745c0,24.607,19.948,44.557,44.557,44.557h118.509V337.113z"/>
	<path style="fill:#333E48;" d="M63.261,215.508c10.005,10.004,26.22,10.003,36.222,0c10.002-10.002,10.002-26.217,0-36.219
		l-61.974-61.974c-20.003,20.003-20.003,52.434-0.001,72.439L63.261,215.508z"/>
	<path style="fill:#333E48;" d="M273.854,215.508c-10.005,10.004-26.22,10.003-36.222,0c-10.002-10.002-10.002-26.217,0-36.219
		l61.974-61.974c20.003,20.003,20.003,52.434,0.001,72.439L273.854,215.508z"/>
	<path style="fill:#E8E8E8;" d="M168.558,194.9c-31.31,0-56.69,25.382-56.69,56.691v85.521h113.381v-85.521
		C225.248,220.282,199.866,194.9,168.558,194.9z"/>
	<path style="fill:#FFFFFF;" d="M235.747,115.609V85.887c0-20.386-16.527-36.912-36.912-36.912
		c-12.537,0-23.605,6.255-30.277,15.807c-6.672-9.552-17.74-15.807-30.277-15.807c-20.385,0-36.912,16.526-36.912,36.912v29.723
		c-4.595,5.746-7.349,13.029-7.349,20.958c0,18.554,15.041,33.595,33.595,33.595h81.886c18.553,0,33.594-15.041,33.594-33.595
		C243.095,128.639,240.342,121.355,235.747,115.609z"/>
	<path style="fill:#ED9900;" d="M185.388,122.987c0-9.294-7.535-16.83-16.83-16.83s-16.83,7.536-16.83,16.83
		c0,9.295,16.83,16.83,16.83,16.83S185.388,132.282,185.388,122.987z"/>
	<circle style="fill:#333E48;" cx="130.507" cy="93.821" r="8.584"/>
	<circle style="fill:#333E48;" cx="206.608" cy="93.821" r="8.584"/>
	<path style="fill:#ED9900;" d="M138.463,312.159h-27.494c-6.891,0-12.476,5.587-12.476,12.478s5.586,12.477,12.476,12.477h27.494
		c6.891,0,12.478-5.586,12.478-12.477C150.94,317.746,145.353,312.159,138.463,312.159z"/>
	<path style="fill:#ED9900;" d="M198.651,312.159h27.495c6.891,0,12.477,5.587,12.477,12.478s-5.586,12.477-12.477,12.477h-27.495
		c-6.89,0-12.477-5.586-12.477-12.477C186.175,317.746,191.762,312.159,198.651,312.159z"/>
</g>
<g>
</g>
<g>
</g>
<g>
</g>
<g>
</g>
<g>
</g>
<g>
</g>
<g>
</g>
<g>
</g>
<g>
</g>
<g>
</g>
<g>
</g>
<g>
</g>
<g>
</g>
<g>
</g>
<g>
</g>
</svg>
