<?xml version="1.0" encoding="utf-8"?>
<!-- Generator: Adobe Illustrator 20.0.0, SVG Export Plug-In . SVG Version: 6.00 Build 0)  -->
<svg version="1.1" id="Layer_1" xmlns="http://www.w3.org/2000/svg" xmlns:xlink="http://www.w3.org/1999/xlink" x="0px" y="0px"
	 viewBox="0 0 269.4 370.2" style="enable-background:new 0 0 269.4 370.2;" xml:space="preserve">
<style type="text/css">
	.st0{opacity:0.55;}
	.st1{fill:#F1F2F2;}
	.st2{font-family:'EngraversGothicBT-Regular';}
	.st3{font-size:16px;}
	.st4{letter-spacing:2;}
	.st5{fill:none;stroke:#E6E7E8;stroke-width:2;stroke-miterlimit:10;}
</style>
<title>Asset 5</title>
<g id="Layer_2">
	<g id="_4._Profile">
		<g id="Profile_Jack_Walder">
			<g class="st0">
				<rect class="st1" width="269.4" height="334.5"/>
			</g>
			<text transform="matrix(1 0 0 1 34.57 270.1699)" class="st2 st3 st4">L</text>
			<text transform="matrix(1 0 0 1 46.4 270.1699)" class="st2 st3 st4">a</text>
			<text transform="matrix(1 0 0 1 56.96 270.1699)" class="st2 st3 st4">s</text>
			<text transform="matrix(1 0 0 1 68.13 270.1699)" class="st2 st3 st4">t </text>
			<text transform="matrix(1 0 0 1 86.33 270.1699)" class="st2 st3 st4">u</text>
			<text transform="matrix(1 0 0 1 98.33 270.1699)" class="st2 st3 st4">w</text>
			<text transform="matrix(1 0 0 1 110.93 270.1699)" class="st2 st3 st4">a</text>
			<text transform="matrix(1 0 0 1 121.38 270.1699)" class="st2 st3 st4">ff</text>
			<text transform="matrix(1 0 0 1 142.58 270.1699)" class="st2 st3 st4">l</text>
			<text transform="matrix(1 0 0 1 152.92 270.1699)" class="st2 st3 st4">e </text>
			<text transform="matrix(1 0 0 1 172.68 270.1699)" class="st2 st3 st4">S</text>
			<text transform="matrix(1 0 0 1 185.32 270.1699)" class="st2 st3 st4">c</text>
			<text transform="matrix(1 0 0 1 197.31 270.1699)" class="st2 st3 st4">a</text>
			<text transform="matrix(1 0 0 1 207.76 270.1699)" class="st2 st3 st4">n</text>
			<text transform="matrix(1 0 0 1 218.23 270.1699)" class="st2 st3 st4">:</text>
			<line class="st5" x1="23.8" y1="277.2" x2="236.6" y2="277.2"/>
		</g>
	</g>
</g>
</svg>
