<?xml version="1.0" encoding="iso-8859-1"?>
<!-- Generator: Adobe Illustrator 19.0.0, SVG Export Plug-In . SVG Version: 6.00 Build 0)  -->
<svg version="1.1" id="Layer_1" xmlns="http://www.w3.org/2000/svg" xmlns:xlink="http://www.w3.org/1999/xlink" x="0px" y="0px"
	 viewBox="0 0 345.456 345.456" style="enable-background:new 0 0 345.456 345.456;" xml:space="preserve">
<g>
	<path style="fill:#9C7F4D;" d="M271.706,260.447c0-5.245,4.251-9.495,9.493-9.495c5.245,0,9.496,4.25,9.496,9.495v9.493
		c0,41.705-33.808,75.515-75.515,75.515v-50.174h31.185c13.995,0,25.341-11.346,25.341-25.341V260.447z"/>
	<path style="fill:#9C7F4D;" d="M229.395,345.455c13.855,0,25.086-11.232,25.086-25.088c0-13.855-11.231-25.086-25.086-25.086
		H80.172c-13.855,0-25.087,11.23-25.087,25.086c0,13.855,11.231,25.088,25.087,25.088H229.395z"/>
	<g>
		<path style="fill:#9C7F4D;" d="M209.13,33.165c54.639,0,98.932,44.293,98.932,98.933c0,65.72-53.277,118.995-118.996,118.995
			H156.39c-65.719,0-118.996-53.275-118.996-118.995c0-54.64,44.293-98.933,98.933-98.933
			C136.327,33.165,209.13,33.165,209.13,33.165z"/>
		<g>
			<circle style="fill:#BF9B5F;" cx="137.221" cy="140.504" r="50.718"/>
			<circle style="fill:#333E48;" cx="137.221" cy="140.504" r="23.833"/>
		</g>
		<g>
			<circle style="fill:#BF9B5F;" cx="208.232" cy="140.504" r="50.718"/>
			<circle style="fill:#333E48;" cx="208.232" cy="140.504" r="23.833"/>
		</g>
	</g>
	<g>
		<path style="fill:#E1CB81;" d="M282.975,345.455c13.855,0,25.086-11.232,25.086-25.088c0-13.855-11.23-25.086-25.086-25.086
			h-63.698c-11.852,0-21.464-9.61-21.464-21.464V54.312H147.64v219.506c0,39.564,32.074,71.638,71.638,71.638h63.697V345.455z"/>
		<g>
			<rect x="147.64" y="94.026" style="fill:#9C7F4D;" width="50.174" height="4.138"/>
			<rect x="147.64" y="111.438" style="fill:#9C7F4D;" width="50.174" height="4.138"/>
			<rect x="147.64" y="128.851" style="fill:#9C7F4D;" width="50.174" height="4.138"/>
			<rect x="147.64" y="146.263" style="fill:#9C7F4D;" width="50.174" height="4.138"/>
			<rect x="147.64" y="163.675" style="fill:#9C7F4D;" width="50.174" height="4.138"/>
			<rect x="147.64" y="181.087" style="fill:#9C7F4D;" width="50.174" height="4.137"/>
			<rect x="147.64" y="198.499" style="fill:#9C7F4D;" width="50.174" height="4.137"/>
			<rect x="147.64" y="215.911" style="fill:#9C7F4D;" width="50.174" height="4.137"/>
			<rect x="147.64" y="233.322" style="fill:#9C7F4D;" width="50.174" height="4.138"/>
			<rect x="147.64" y="250.734" style="fill:#9C7F4D;" width="50.174" height="4.138"/>
		</g>
		<path style="fill:#BF9B5F;" d="M282.975,295.281h-63.698c-11.852,0-21.464-9.61-21.464-21.464v35.82
			c0,19.78,16.037,35.817,35.818,35.817h49.344c13.855,0,25.086-11.232,25.086-25.088
			C308.061,306.512,296.831,295.281,282.975,295.281z"/>
	</g>
	<g>
		<path style="fill:#BF9B5F;" d="M139.029,26.063c-2.916,0-5.277,2.362-5.277,5.277v19.292c0,11.287,9.147,20.437,20.438,20.437
			h37.074c11.29,0,20.439-9.15,20.439-20.437V31.341c0-2.915-2.363-5.277-5.279-5.277L139.029,26.063L139.029,26.063z"/>
		<path style="fill:#65513C;" d="M154.189,59.819c-6.208,0-11.262-5.053-11.262-11.262V33.165h59.6v15.393
			c0,6.209-5.053,11.262-11.264,11.262L154.189,59.819L154.189,59.819z"/>
		<path style="fill:#E1CB81;" d="M210.954,33.146c3.307,0,5.988-2.682,5.988-5.988v-3.971C216.942,10.382,206.561,0,193.757,0
			h-42.059c-12.807,0-23.188,10.382-23.188,23.187v3.971c0,3.307,2.682,5.988,5.988,5.988H210.954z"/>
		<circle style="fill:#333E48;" cx="143.162" cy="15.538" r="4.482"/>
		<circle style="fill:#333E48;" cx="202.293" cy="15.538" r="4.482"/>
		<polygon style="fill:#FFFFFF;" points="155.53,54.312 150.488,33.146 160.573,33.146 		"/>
		<polygon style="fill:#FFFFFF;" points="189.923,54.312 194.965,33.146 184.88,33.146 		"/>
		<g>
			<path style="fill:#BF9B5F;" d="M193.016,0c0,4.304-3.487,7.79-7.79,7.79H160.23c-4.303,0-7.79-3.486-7.79-7.79H193.016z"/>
		</g>
		<g>
			<path style="fill:#BF9B5F;" d="M181.933,7.79c3.169,0,5.737,2.568,5.737,5.738c0,3.167-2.568,5.735-5.737,5.735h-18.409
				c-3.17,0-5.738-2.568-5.738-5.735c0-3.17,2.568-5.738,5.738-5.738H181.933z"/>
		</g>
	</g>
</g>
<g>
</g>
<g>
</g>
<g>
</g>
<g>
</g>
<g>
</g>
<g>
</g>
<g>
</g>
<g>
</g>
<g>
</g>
<g>
</g>
<g>
</g>
<g>
</g>
<g>
</g>
<g>
</g>
<g>
</g>
</svg>
