<?xml version="1.0" encoding="iso-8859-1"?>
<!-- Generator: Adobe Illustrator 19.0.0, SVG Export Plug-In . SVG Version: 6.00 Build 0)  -->
<svg version="1.1" id="Layer_1" xmlns="http://www.w3.org/2000/svg" xmlns:xlink="http://www.w3.org/1999/xlink" x="0px" y="0px"
	 viewBox="0 0 418.609 418.609" style="enable-background:new 0 0 418.609 418.609;" xml:space="preserve">
<g>
	<circle style="fill:#2D3740;" cx="209.304" cy="188.76" r="104.389"/>
	<g>
		<path style="fill:#2D3740;" d="M373.964,334.238c-3.055,0-5.924-1.879-7.04-4.912l-41.579-113.022l-53.979,39.15
			c-3.353,2.433-8.042,1.687-10.475-1.668c-2.432-3.353-1.686-8.043,1.668-10.475l62-44.968c1.901-1.378,4.335-1.79,6.587-1.104
			c2.247,0.684,4.044,2.381,4.855,4.585l45,122.321c1.43,3.888-0.563,8.198-4.449,9.629
			C375.698,334.089,374.823,334.238,373.964,334.238z"/>
		<path style="fill:#2D3740;" d="M387.036,300.196c-3.055,0-5.924-1.879-7.04-4.912l-41.579-113.022l-53.979,39.15
			c-3.353,2.432-8.041,1.686-10.475-1.668c-2.432-3.353-1.686-8.043,1.668-10.475l62-44.968c1.901-1.38,4.337-1.791,6.587-1.104
			c2.247,0.684,4.044,2.381,4.855,4.585l45,122.321c1.43,3.888-0.563,8.198-4.449,9.629
			C388.771,300.047,387.896,300.196,387.036,300.196z"/>
		<path style="fill:#2D3740;" d="M400.109,266.154c-3.055,0-5.924-1.879-7.04-4.912l-41.58-113.022l-53.979,39.15
			c-3.353,2.432-8.042,1.687-10.475-1.668c-2.432-3.353-1.685-8.043,1.668-10.475l62-44.968c1.901-1.378,4.335-1.791,6.587-1.104
			c2.247,0.684,4.044,2.381,4.855,4.585l45,122.321c1.43,3.888-0.563,8.198-4.449,9.629
			C401.843,266.005,400.968,266.154,400.109,266.154z"/>
		<path style="fill:#2D3740;" d="M411.109,231.19c-3.055,0-5.924-1.879-7.04-4.912L362.49,113.255l-62.852,45.384
			c-3.353,2.432-8.042,1.686-10.475-1.668c-2.432-3.353-1.686-8.043,1.668-10.475l70.873-51.201
			c1.901-1.378,4.335-1.791,6.587-1.104c2.247,0.684,4.044,2.381,4.855,4.585l45,122.321c1.43,3.888-0.563,8.198-4.449,9.629
			C412.843,231.04,411.968,231.19,411.109,231.19z"/>
	</g>
	<g>
		<path style="fill:#2D3740;" d="M44.646,334.238c3.055,0,5.924-1.879,7.04-4.912l41.579-113.022l53.979,39.15
			c3.354,2.433,8.042,1.687,10.475-1.668c2.432-3.353,1.686-8.043-1.668-10.475l-62-44.968c-1.901-1.378-4.335-1.79-6.587-1.104
			c-2.247,0.684-4.044,2.381-4.855,4.585l-45,122.321c-1.43,3.888,0.563,8.198,4.449,9.629
			C42.911,334.089,43.786,334.238,44.646,334.238z"/>
		<path style="fill:#2D3740;" d="M31.573,300.196c3.055,0,5.924-1.879,7.04-4.912l41.579-113.022l53.979,39.15
			c3.353,2.432,8.041,1.686,10.475-1.668c2.432-3.353,1.686-8.043-1.668-10.475l-62-44.968c-1.901-1.38-4.337-1.791-6.587-1.104
			c-2.247,0.684-4.044,2.381-4.855,4.585l-45,122.321c-1.43,3.888,0.563,8.198,4.449,9.629
			C29.839,300.047,30.714,300.196,31.573,300.196z"/>
		<path style="fill:#2D3740;" d="M18.501,266.154c3.055,0,5.924-1.879,7.04-4.912L67.12,148.22l53.979,39.15
			c3.353,2.432,8.042,1.687,10.475-1.668c2.432-3.353,1.686-8.043-1.668-10.475l-62-44.968c-1.901-1.378-4.335-1.791-6.587-1.104
			c-2.247,0.684-4.044,2.381-4.855,4.585l-45,122.321c-1.43,3.888,0.563,8.198,4.449,9.629
			C16.767,266.005,17.642,266.154,18.501,266.154z"/>
		<path style="fill:#2D3740;" d="M7.501,231.19c3.055,0,5.924-1.879,7.04-4.912L56.12,113.255l62.852,45.384
			c3.353,2.432,8.042,1.686,10.475-1.668c2.432-3.353,1.686-8.043-1.668-10.475L56.905,95.295c-1.901-1.378-4.335-1.791-6.587-1.104
			c-2.247,0.684-4.044,2.381-4.855,4.585l-45,122.321c-1.43,3.888,0.563,8.198,4.449,9.629C5.767,231.04,6.642,231.19,7.501,231.19z
			"/>
	</g>
	<path style="fill:#E94F3D;" d="M209.304,84.371c-13.324,0-26.061,2.5-37.776,7.051c3.313,17.857,18.96,31.384,37.776,31.384
		c18.817,0,34.465-13.526,37.777-31.384C235.366,86.871,222.629,84.371,209.304,84.371z"/>
	<g>
		<circle style="fill:#333E48;" cx="209.304" cy="249.383" r="70.731"/>
		<circle style="fill:#7D868C;" cx="176.035" cy="233.332" r="8.979"/>
		<circle style="fill:#7D868C;" cx="194.954" cy="240.405" r="7.073"/>
		<circle style="fill:#7D868C;" cx="242.574" cy="233.332" r="8.979"/>
		<circle style="fill:#7D868C;" cx="223.656" cy="240.405" r="7.073"/>
		<path style="fill:#5C6670;" d="M201.922,253.756c-4.077,0-7.381,3.306-7.381,7.383v9.049c0,4.077,3.304,7.382,7.381,7.382
			s7.383-3.305,7.383-7.382v-9.049C209.305,257.062,205.999,253.756,201.922,253.756z"/>
		<path style="fill:#5C6670;" d="M216.687,253.756c-4.077,0-7.382,3.306-7.382,7.383v9.049c0,4.077,3.305,7.382,7.382,7.382
			c4.076,0,7.382-3.305,7.382-7.382v-9.049C224.068,257.062,220.763,253.756,216.687,253.756z"/>
	</g>
</g>
<g>
</g>
<g>
</g>
<g>
</g>
<g>
</g>
<g>
</g>
<g>
</g>
<g>
</g>
<g>
</g>
<g>
</g>
<g>
</g>
<g>
</g>
<g>
</g>
<g>
</g>
<g>
</g>
<g>
</g>
</svg>
