<?xml version="1.0" encoding="utf-8"?>
<!-- Generator: Adobe Illustrator 20.0.0, SVG Export Plug-In . SVG Version: 6.00 Build 0)  -->
<svg version="1.1" id="Layer_1" xmlns="http://www.w3.org/2000/svg" xmlns:xlink="http://www.w3.org/1999/xlink" x="0px" y="0px"
	 viewBox="0 0 502.8 60.7" style="enable-background:new 0 0 502.8 60.7;" xml:space="preserve">
<style type="text/css">
	.st0{fill:#F1F2F2;}
</style>
<title>Asset 5</title>
<g id="Layer_2">
	<g id="_2.Uwaffle_Playlist">
		<g id="uwaffle_playlist_content">
			<path class="st0" d="M0,1.7h7.2v36.7c0,5.5,1,9.2,3.1,11.2s6.2,2.9,12.4,2.9s10.3-1,12.4-2.9s3.1-5.6,3.1-11.2V1.7h7.1v39.1
				c0,7-1.8,12.1-5.3,15.2s-9.4,4.7-17.4,4.7S8.8,59.2,5.3,56.1S0,47.9,0,40.8V1.7z"/>
			<path class="st0" d="M80.8,58.9L65.2,1.5h7.1l11.2,42l11.6-42h6l11.6,42l11.2-42h7l-15.4,57.3h-5.2l-12.2-44L85.8,58.9H80.8z"/>
			<path class="st0" d="M139.8,58.9l23.3-57.3h4.5l23.5,57.3h-7.7l-6-14.6h-24.2l-5.9,14.6H139.8z M156.4,36.7h17.9l-8.9-22
				L156.4,36.7z"/>
			<path class="st0" d="M216.1,32.5v26.4H209V1.5h42.4v8.4h-35.2v14.3h22.7v8.3H216.1z"/>
			<path class="st0" d="M278.9,32.5v26.4h-7.2V1.5h42.4v8.4h-35.2v14.3h22.7v8.3H278.9z"/>
			<path class="st0" d="M334.4,58.9V1.5h7.2v49.1h34v8.3L334.4,58.9z"/>
			<path class="st0" d="M394.8,58.9V1.5h43v8.4H402v14.3h23.5v8.3H402v18.1h37.8v8.3L394.8,58.9z"/>
		</g>
	</g>
</g>
<polygon class="st0" points="476.5,49.4 461.8,24 491.1,24 "/>
</svg>
